<?xml version="1.0" encoding="UTF-8" standalone="no"?>
<svg
   xmlns:dc="http://purl.org/dc/elements/1.1/"
   xmlns:cc="http://creativecommons.org/ns#"
   xmlns:rdf="http://www.w3.org/1999/02/22-rdf-syntax-ns#"
   xmlns:svg="http://www.w3.org/2000/svg"
   xmlns="http://www.w3.org/2000/svg"
   version="1.1"
   id="svg2"
   viewBox="0 0 197.81989 198.10309"
   height="55.909096mm"
   width="55.82917mm">
  <defs
     id="defs4" />
  <metadata
     id="metadata7">
    <rdf:RDF>
      <cc:Work
         rdf:about="">
        <dc:format>image/svg+xml</dc:format>
        <dc:type
           rdf:resource="http://purl.org/dc/dcmitype/StillImage" />
        <dc:title></dc:title>
      </cc:Work>
    </rdf:RDF>
  </metadata>
  <g
     transform="translate(-303.40586,-422.95083)"
     id="layer1">
    <g
       transform="translate(10.101531,28.284274)"
       id="g3347">
      <path
         id="path3361"
         d="m 371.82726,591.58778 c -10.01469,-2.26033 -15.9327,-4.41411 -25.31452,-9.21288 -24.62781,-12.59705 -42.05555,-33.65323 -50.49671,-61.01007 -2.54543,-8.24944 -2.7117,-9.95336 -2.7117,-27.78832 0,-17.83496 0.16627,-19.53888 2.7117,-27.78832 10.33646,-33.49929 34.87452,-58.07566 68.25989,-68.36645 8.42392,-2.59661 10.03189,-2.75518 27.93836,-2.75518 17.90647,0 19.51444,0.15857 27.93836,2.75518 33.38537,10.29079 57.92343,34.86716 68.25989,68.36645 2.54543,8.24944 2.7117,9.95336 2.7117,27.78832 0,17.83496 -0.16627,19.53888 -2.7117,27.78832 -10.34399,33.52372 -35.13996,58.33461 -68.25989,68.30098 -7.81761,2.35245 -11.00723,2.73195 -25.43836,3.02661 -11.82523,0.24146 -18.30957,-0.0715 -22.88702,-1.10464 z m 21.01341,-68.35075 c 16.15549,-15.58672 29.49453,-28.86172 29.64233,-29.5 0.43275,-1.86893 -59.34005,-61.04349 -60.76872,-60.16052 -0.82045,0.50706 8.60021,10.59638 28.3662,30.3796 l 29.59461,29.6204 -29.46703,28.36714 c -16.20686,15.60193 -29.2068,28.78818 -28.88876,29.30279 0.31804,0.5146 0.9314,0.79939 1.36301,0.63286 0.43161,-0.16654 14.00288,-13.05556 30.15836,-28.64227 z"
         style="fill:#fefefe" />
      <path
         id="path3359"
         d="m 375.21428,536.07651 c 2.14824,-2.2 4.1309,-4 4.4059,-4 0.275,0 -1.25766,1.8 -3.4059,4 -2.14824,2.2 -4.1309,4 -4.4059,4 -0.275,0 1.25766,-1.8 3.4059,-4 z m 14,-10 c 2.14824,-2.2 4.1309,-4 4.4059,-4 0.275,0 -1.25766,1.8 -3.4059,4 -2.14824,2.2 -4.1309,4 -4.4059,4 -0.275,0 1.25766,-1.8 3.4059,-4 z m 16,-19 c 2.14824,-2.2 4.1309,-4 4.4059,-4 0.275,0 -1.25766,1.8 -3.4059,4 -2.14824,2.2 -4.1309,4 -4.4059,4 -0.275,0 1.25766,-1.8 3.4059,-4 z m 13.05562,-9.06337 c 2.16941,-2.50986 4.14732,-4.40692 4.39536,-4.21569 0.24804,0.19123 -1.52693,2.24475 -3.94438,4.56337 l -4.39536,4.21569 3.94438,-4.56337 z"
         style="fill:#d0d0d0" />
      <path
         id="path3357"
         d="m 366.71428,547.57651 c 1.29175,-1.375 2.57363,-2.5 2.84863,-2.5 0.275,0 -0.55688,1.125 -1.84863,2.5 -1.29175,1.375 -2.57363,2.5 -2.84863,2.5 -0.275,0 0.55688,-1.125 1.84863,-2.5 z m 2,-5 c 1.29175,-1.375 2.57363,-2.5 2.84863,-2.5 0.275,0 -0.55688,1.125 -1.84863,2.5 -1.29175,1.375 -2.57363,2.5 -2.84863,2.5 -0.275,0 0.55688,-1.125 1.84863,-2.5 z m 27,-23 c 1.29175,-1.375 2.57363,-2.5 2.84863,-2.5 0.275,0 -0.55688,1.125 -1.84863,2.5 -1.29175,1.375 -2.57363,2.5 -2.84863,2.5 -0.275,0 0.55688,-1.125 1.84863,-2.5 z m 3,-6 c 1.29175,-1.375 2.57363,-2.5 2.84863,-2.5 0.275,0 -0.55688,1.125 -1.84863,2.5 -1.29175,1.375 -2.57363,2.5 -2.84863,2.5 -0.275,0 0.55688,-1.125 1.84863,-2.5 z m -8.50647,-49.75 -28.99353,-29.25 29.25,28.99353 c 16.0875,15.94645 29.25,29.10895 29.25,29.25 0,0.70673 -2.56227,-1.81099 -29.50647,-28.99353 z"
         style="fill:#b6b6b6" />
      <path
         id="path3355"
         d="m 363.71428,547.57651 c 1.29175,-1.375 2.57363,-2.5 2.84863,-2.5 0.275,0 -0.55688,1.125 -1.84863,2.5 -1.29175,1.375 -2.57363,2.5 -2.84863,2.5 -0.275,0 0.55688,-1.125 1.84863,-2.5 z m 8,-5 c 1.29175,-1.375 2.57363,-2.5 2.84863,-2.5 0.275,0 -0.55688,1.125 -1.84863,2.5 -1.29175,1.375 -2.57363,2.5 -2.84863,2.5 -0.275,0 0.55688,-1.125 1.84863,-2.5 z m 19,-20.81291 c 0,-0.1721 1.4625,-1.6346 3.25,-3.25 l 3.25,-2.93709 -2.93709,3.25 c -2.73778,3.02946 -3.56291,3.70965 -3.56291,2.93709 z m 10,-7.18709 c 1.29175,-1.375 2.57363,-2.5 2.84863,-2.5 0.275,0 -0.55688,1.125 -1.84863,2.5 -1.29175,1.375 -2.57363,2.5 -2.84863,2.5 -0.275,0 0.55688,-1.125 1.84863,-2.5 z m -9.00636,-52.25 -29.49364,-29.75 29.75,29.49364 c 27.64741,27.40918 30.20022,30.00636 29.49364,30.00636 -0.14099,0 -13.52849,-13.3875 -29.75,-29.75 z"
         style="fill:#929292" />
      <path
         id="path3353"
         d="m 376.71428,537.57651 c 1.29175,-1.375 2.57363,-2.5 2.84863,-2.5 0.275,0 -0.55688,1.125 -1.84863,2.5 -1.29175,1.375 -2.57363,2.5 -2.84863,2.5 -0.275,0 0.55688,-1.125 1.84863,-2.5 z m 11,-13 c 1.29175,-1.375 2.57363,-2.5 2.84863,-2.5 0.275,0 -0.55688,1.125 -1.84863,2.5 -1.29175,1.375 -2.57363,2.5 -2.84863,2.5 -0.275,0 0.55688,-1.125 1.84863,-2.5 z m 16,-12.81291 c 0,-0.1721 1.4625,-1.6346 3.25,-3.25 l 3.25,-2.93709 -2.93709,3.25 c -2.73778,3.02946 -3.56291,3.70965 -3.56291,2.93709 z m 11,-13 c 0,-0.1721 1.4625,-1.6346 3.25,-3.25 l 3.25,-2.93709 -2.93709,3.25 c -2.73778,3.02946 -3.56291,3.70965 -3.56291,2.93709 z"
         style="fill:#6e6e6e" />
      <path
         id="path3351"
         d="m 381.3591,530.9282 c 2.04887,-2.09824 3.93806,-3.60214 4.19819,-3.34201 0.26014,0.26013 1.18938,-0.063 2.06498,-0.71808 0.87561,-0.65508 -0.34058,0.84883 -2.70263,3.34201 -2.36205,2.49318 -4.96764,4.53306 -5.7902,4.53306 -0.93779,0 -0.10622,-1.42282 2.22966,-3.81498 z m 1.91809,-0.10169 2.93709,-3.25 -3.25,2.93709 c -1.7875,1.6154 -3.25,3.0779 -3.25,3.25 0,0.77256 0.82513,0.0924 3.56291,-2.93709 z m 26.87211,-27.52902 c 2.16427,-2.30135 4.14786,-3.97143 4.40799,-3.7113 0.26014,0.26013 1.18938,-0.0643 2.06498,-0.72098 0.87561,-0.65667 -0.17875,0.68897 -2.34301,2.99032 -2.16427,2.30135 -4.14786,3.97143 -4.40799,3.7113 -0.26014,-0.26013 -1.18938,0.0643 -2.06498,0.72098 -0.87561,0.65667 0.17875,-0.68897 2.34301,-2.99032 z m 2.56498,-0.72098 c 1.29175,-1.375 2.12363,-2.5 1.84863,-2.5 -0.275,0 -1.55688,1.125 -2.84863,2.5 -1.29175,1.375 -2.12363,2.5 -1.84863,2.5 0.275,0 1.55688,-1.125 2.84863,-2.5 z"
         style="fill:#4e4e4e" />
      <path
         id="path3349"
         d="m 361.71428,550.81964 c 0,-0.23294 13.28653,-13.19365 29.52561,-28.80156 l 29.52562,-28.37803 -29.76937,-29.78177 c -16.37315,-16.37997 -29.31931,-29.78177 -28.76925,-29.78177 1.49644,0 59.79417,58.61165 59.36081,59.68046 -0.4702,1.15971 -57.79999,56.70022 -58.99409,57.15287 -0.48363,0.18334 -0.87933,0.14275 -0.87933,-0.0902 z"
         style="fill:#2e2e2e" />
    </g>
  </g>
</svg>
